<svg xmlns="http://www.w3.org/2000/svg" viewBox="0 0 522.06 157.62"><defs><style>.cls-1{fill:#fff;}</style></defs><title>excelsior-creative-logo-white</title><g id="Layer_2" data-name="Layer 2"><g id="Layer_1-2" data-name="Layer 1"><path class="cls-1" d="M64.73,60c0-20.64-12.76-34.87-31.84-34.87S0,40,0,58.43c0,20.38,14.61,33.4,33.94,33.4,9.88,0,19.87-3,26.19-8.8L52.62,72c-4.07,4-11.44,6.19-16.84,6.19C25,78.16,18.68,71.71,17.5,64H64.73ZM17.38,52.37C18,46.06,22.5,38.82,32.89,38.82c11.06,0,15.26,7.5,15.79,13.55Z"/><path class="cls-1" d="M139.89,11.75H129.24L105.86,43.64l5.31,7.29ZM105.8,71.37l13.93,18.9h10.65L111.17,64.21ZM71.44,26.71l23,30.92L51.85,114.08H62.5l42.61-56.45-23-30.92Z"/><path class="cls-1" d="M171.3,77c-10.13,0-17.23-7.5-17.23-18.54S161.17,40,171.3,40c5.79,0,10.39,2.36,13.42,6.85l10.93-10.27c-4.22-5.8-12.11-11.46-25.14-11.46C151,25.12,136.83,39,136.83,58.43s14.21,33.4,33.68,33.4c13,0,20.92-5.78,25.14-11.57L184.72,70A15.83,15.83,0,0,1,171.3,77Z"/><path class="cls-1" d="M267.21,60c0-20.64-12.77-34.87-31.84-34.87S202.48,40,202.48,58.43c0,20.38,14.6,33.4,33.94,33.4,9.87,0,19.87-3,26.19-8.8L255.11,72c-4.09,4-11.45,6.19-16.85,6.19-10.79,0-17.1-6.45-18.29-14.21h47.24Zm-47.36-7.62c.65-6.31,5.13-13.55,15.52-13.55,11.06,0,15.26,7.5,15.79,13.55Z"/><path class="cls-1" d="M279.3,2.5V90.27H296V2.5Z"/><path class="cls-1" d="M325.35,44.48c0-3.56,4-6.2,10-6.2,7.77,0,15,3.43,18.82,7.38l6.71-11.85a40.57,40.57,0,0,0-25.53-8.69c-16.84,0-26.05,9.36-26.05,20,0,25,37.64,16.45,37.64,26.84,0,4-3.42,6.71-10.66,6.71-7.9,0-17.24-4.34-22-8.81L307.07,82c6.71,6.17,17.37,9.85,28.42,9.85,17.63,0,27.62-8.54,27.62-20.24C363.11,45.92,325.35,53.82,325.35,44.48Z"/><path class="cls-1" d="M383.64,0a9.86,9.86,0,0,0-9.88,9.86,9.94,9.94,0,1,0,19.87,0A9.87,9.87,0,0,0,383.64,0Zm-8.3,26.7V90.27h16.72V26.71Z"/><path class="cls-1" d="M438.1,25.12c-20.92,0-33.55,15.28-33.55,33.31s12.63,33.4,33.55,33.4,33.7-15.39,33.7-33.4S459.16,25.12,438.1,25.12Zm0,51.85c-10.39,0-16.17-8.55-16.17-18.54S427.71,40,438.1,40s16.32,8.55,16.32,18.43S448.63,77,438.1,77Z"/><path class="cls-1" d="M501,35.26V26.71h-16.7V90.27H501v-42c2.77-4.07,10.13-7.24,15.66-7.24a21.6,21.6,0,0,1,4.61.4V25.12C513.36,25.12,505.6,29.73,501,35.26Z"/><path class="cls-1" d="M0,58.42C0,40,13.69,25.13,32.89,25.13S64.74,39.34,64.74,60v4H17.5c1.19,7.76,7.5,14.21,18.29,14.21,5.4,0,12.76-2.24,16.84-6.19L60.13,83C53.82,88.81,43.82,91.84,34,91.84,14.61,91.84,0,78.81,0,58.42Zm32.89-19.6C22.5,38.82,18,46.05,17.37,52.37H48.68C48.16,46.32,44,38.82,32.89,38.82Z"/><path class="cls-1" d="M49.56,115.22,93,57.63,69.17,25.57h13.5l23.87,32.07L63.07,115.22Zm69.59-23.81-14.78-20,6.8-9.08,21.47,29.12ZM104.44,43.64l24.22-33h13.48l-31,42.25Z"/><path class="cls-1" d="M136.83,58.42c0-19.47,14.21-33.29,33.68-33.29,13,0,20.92,5.66,25.13,11.45L184.72,46.84A15.42,15.42,0,0,0,171.3,40c-10.13,0-17.24,7.37-17.24,18.42S161.17,77,171.3,77a15.83,15.83,0,0,0,13.42-7l10.92,10.26c-4.21,5.79-12.1,11.58-25.13,11.58C151,91.84,136.83,78,136.83,58.42Z"/><path class="cls-1" d="M202.48,58.42c0-18.42,13.68-33.29,32.89-33.29S267.21,39.34,267.21,60v4H220c1.18,7.76,7.5,14.21,18.29,14.21,5.39,0,12.76-2.24,16.84-6.19L262.61,83c-6.32,5.78-16.32,8.81-26.19,8.81C217.08,91.84,202.48,78.81,202.48,58.42Zm32.89-19.6c-10.39,0-14.87,7.23-15.53,13.55h31.32C250.63,46.32,246.42,38.82,235.37,38.82Z"/><path class="cls-1" d="M279.31,90.26V2.5H296V90.26Z"/><path class="cls-1" d="M307.07,82l7.23-12.1c4.74,4.47,14.08,8.81,22,8.81,7.23,0,10.66-2.76,10.66-6.71,0-10.39-37.64-1.84-37.64-26.84,0-10.66,9.21-20,26.06-20a40.48,40.48,0,0,1,25.52,8.69l-6.71,11.84c-3.81-3.95-11.05-7.37-18.81-7.37-6.05,0-10,2.63-10,6.18,0,9.35,37.76,1.45,37.76,27.11,0,11.71-10,20.26-27.63,20.26C324.44,91.84,313.78,88.16,307.07,82Z"/><path class="cls-1" d="M373.77,9.87a9.94,9.94,0,0,1,19.87,0,9.94,9.94,0,1,1-19.87,0Zm1.58,80.39V26.71h16.71V90.26Z"/><path class="cls-1" d="M404.56,58.42c0-18,12.63-33.29,33.55-33.29s33.68,15.26,33.68,33.29-12.63,33.42-33.68,33.42S404.56,76.45,404.56,58.42Zm49.86,0c0-9.87-5.79-18.42-16.31-18.42s-16.19,8.55-16.19,18.42S427.71,77,438.11,77,454.42,68.42,454.42,58.42Z"/><path class="cls-1" d="M484.28,90.26V26.71H501v8.55c4.61-5.52,12.37-10.13,20.27-10.13V41.45a21,21,0,0,0-4.61-.4c-5.53,0-12.89,3.16-15.66,7.24v42Z"/><path class="cls-1" d="M259.79,138c0-11,7.49-19.54,18.61-19.54,6.8,0,10.82,2.78,13.68,6.49l-3.87,3.48a11,11,0,0,0-9.5-4.79c-7.88,0-12.9,6.1-12.9,14.36s5,14.45,12.9,14.45a11.26,11.26,0,0,0,9.5-4.87l3.87,3.56c-2.86,3.7-6.88,6.48-13.68,6.48C267.28,157.62,259.79,149.05,259.79,138Z"/><path class="cls-1" d="M300.26,156.7V119.39h5.79v6c3-3.86,7.34-6.8,12.44-6.8v5.95a18.55,18.55,0,0,0-2.24-.16c-3.63,0-8.5,2.94-10.2,6V156.7Z"/><path class="cls-1" d="M323.58,138c0-10.81,7.72-19.54,18.38-19.54,11.28,0,17.92,8.81,17.92,20v1.47H329.76c.46,7,5.33,12.89,13.36,12.89a16.24,16.24,0,0,0,11.59-4.78l2.78,3.78a20.58,20.58,0,0,1-14.83,5.79C331.54,157.62,323.58,149.67,323.58,138Zm18.3-14.75c-7.95,0-11.89,6.72-12.2,12.36h24.49C354.09,130.13,350.38,123.25,341.88,123.25Z"/><path class="cls-1" d="M392.55,156.7v-4.25a16,16,0,0,1-12.36,5.17c-6.26,0-13-4.25-13-12.35,0-8.42,6.65-12.28,13-12.28,5.1,0,9.35,1.62,12.36,5v-6.71c0-4.95-4-7.81-9.43-7.81a14.58,14.58,0,0,0-11.43,5.18l-2.7-4a19.55,19.55,0,0,1,14.91-6.18c8,0,14.44,3.56,14.44,12.59V156.7Zm0-7.88v-7.11c-2.24-3-6.18-4.55-10.2-4.55-5.48,0-9.27,3.39-9.27,8.11s3.79,8.18,9.27,8.18C386.37,153.45,390.31,151.91,392.55,148.82Z"/><path class="cls-1" d="M411.16,148.9V124.49H405v-5.1h6.18V109.2H417v10.19h7.57v5.1H417v23.17c0,2.78,1.23,4.79,3.71,4.79a5.51,5.51,0,0,0,3.94-1.62l1.69,4.4a9.38,9.38,0,0,1-6.87,2.39C413.94,157.62,411.16,154.46,411.16,148.9Z"/><path class="cls-1" d="M431.7,110.2a4,4,0,0,1,3.94-3.94,3.89,3.89,0,0,1,3.86,3.94,3.82,3.82,0,0,1-3.86,3.86A3.89,3.89,0,0,1,431.7,110.2Zm1,46.5V119.39h5.8V156.7Z"/><path class="cls-1" d="M460,156.7l-15.52-37.31h6.33L463.21,150l12.44-30.59h6.25L466.38,156.7Z"/><path class="cls-1" d="M485.76,138c0-10.81,7.72-19.54,18.38-19.54,11.28,0,17.92,8.81,17.92,20v1.47H491.94c.46,7,5.33,12.89,13.36,12.89a16.24,16.24,0,0,0,11.59-4.78l2.78,3.78a20.58,20.58,0,0,1-14.83,5.79C493.72,157.62,485.76,149.67,485.76,138Zm18.31-14.75c-8,0-11.9,6.72-12.21,12.36h24.49C516.27,130.13,512.56,123.25,504.07,123.25Z"/><rect class="cls-1" x="5.22" y="134.18" width="233.04" height="10.51"/></g></g></svg>