<svg width="512" height="512" viewBox="0 0 512 512" fill="none" xmlns="http://www.w3.org/2000/svg">
<path d="M233.163 245.319C233.163 170.726 187.2 119.3 118.472 119.3C49.7447 119.3 0 173.039 0 239.645C0 313.297 52.6264 360.351 122.255 360.351C157.843 360.351 193.828 349.509 216.593 328.548L189.541 288.686C174.881 303.142 148.334 311.057 128.882 311.057C90.052 310.948 67.2869 287.638 63.0364 259.775H233.163V245.319ZM62.6042 217.744C64.8374 194.94 81.0468 168.775 118.472 168.775C158.311 168.775 173.44 195.88 175.349 217.744H62.6042Z" fill="white"/>
<path d="M503.895 70.9448H465.533L381.316 186.194L400.443 212.54L503.895 70.9448ZM381.1 286.41L431.277 354.714H469.639L400.443 260.534L381.1 286.41ZM257.332 125.01L340.18 236.754L186.768 440.762H225.13L378.614 236.754L295.767 125.01H257.332Z" fill="white"/>
<path d="M0 239.609C0 173.039 49.3125 119.3 118.472 119.3C187.632 119.3 233.199 170.654 233.199 245.319V259.775H63.0364C67.3229 287.819 90.052 311.129 128.918 311.129C148.37 311.129 174.881 303.034 189.578 288.759L216.593 328.44C193.864 349.437 157.843 360.387 122.471 360.387C52.6264 360.387 0 313.297 0 239.609ZM118.472 168.775C81.0468 168.775 64.8375 194.904 62.5682 217.744H175.349C173.476 195.88 158.492 168.775 118.472 168.775Z" fill="white"/>
<path d="M178.519 444.882L334.993 236.754L249.156 120.89H297.784L383.766 236.79L227.183 444.882H178.519ZM429.188 358.834L375.949 286.554L400.443 253.739L477.78 358.978L429.188 358.834ZM376.201 186.194L463.444 66.9333H512L400.335 219.624L376.201 186.194Z" fill="white"/>
</svg>
