<svg width="198" height="107" viewBox="0 0 198 107" fill="none" xmlns="http://www.w3.org/2000/svg">
<g clip-path="url(#clip0_1_60)">
<path d="M5.65001 55.43C7.21001 55.43 8.54001 55.99 9.66001 57.12C10.77 58.25 11.33 59.61 11.33 61.22C11.33 62.83 10.78 64.15 9.68001 65.27C8.58001 66.39 7.26001 66.95 5.72001 66.95C4.18001 66.95 2.79001 66.38 1.68001 65.24C0.56001 64.1 0.0100098 62.72 0.0100098 61.09C0.0100098 59.46 0.56001 58.19 1.67001 57.09C2.77001 55.98 4.10001 55.43 5.66001 55.43H5.65001ZM1.20001 70.02H10.09V105.43H1.20001V70.02Z" fill="#311D3F"/>
<path d="M18.85 56.35H27.74V105.43H18.85V56.35Z" fill="#311D3F"/>
<path d="M36.5 56.35H45.39V105.43H36.5V56.35Z" fill="#311D3F"/>
<path d="M143.73 70.02H152.62V74.09C154.14 72.42 155.83 71.17 157.68 70.35C159.54 69.52 161.56 69.11 163.76 69.11C165.96 69.11 167.97 69.65 169.75 70.74C171.53 71.82 172.96 73.41 174.05 75.49C175.46 73.41 177.19 71.82 179.25 70.74C181.3 69.65 183.54 69.11 185.98 69.11C188.42 69.11 190.71 69.7 192.62 70.87C194.53 72.04 195.9 73.57 196.74 75.46C197.58 77.35 197.99 80.42 197.99 84.67V105.44H189.04V87.47C189.04 83.46 188.54 80.74 187.54 79.32C186.54 77.9 185.05 77.19 183.05 77.19C181.53 77.19 180.17 77.62 178.97 78.49C177.76 79.36 176.87 80.56 176.28 82.09C175.7 83.62 175.4 86.08 175.4 89.46V105.44H166.45V88.29C166.45 85.12 166.22 82.83 165.75 81.4C165.28 79.98 164.58 78.92 163.64 78.23C162.7 77.54 161.57 77.19 160.25 77.19C158.77 77.19 157.43 77.63 156.22 78.51C155.01 79.39 154.11 80.62 153.51 82.2C152.91 83.78 152.61 86.28 152.61 89.69V105.44H143.72V70.03L143.73 70.02Z" fill="#311D3F"/>
<path d="M72.16 69.11C75.5 69.11 78.64 69.95 81.58 71.62C84.52 73.29 86.81 75.56 88.46 78.42C90.11 81.28 90.93 84.38 90.93 87.7C90.93 91.02 90.1 94.17 88.44 97.07C86.78 99.98 84.52 102.25 81.65 103.89C78.78 105.53 75.63 106.35 72.18 106.35C67.1 106.35 62.77 104.54 59.18 100.93C55.59 97.32 53.79 92.93 53.79 87.76C53.79 82.23 55.82 77.62 59.88 73.93C63.44 70.72 67.53 69.11 72.15 69.11H72.16ZM72.31 77.47C69.55 77.47 67.25 78.43 65.41 80.35C63.57 82.27 62.65 84.73 62.65 87.72C62.65 90.71 63.56 93.3 65.37 95.21C67.19 97.12 69.48 98.07 72.27 98.07C75.06 98.07 77.37 97.1 79.22 95.17C81.07 93.24 81.99 90.75 81.99 87.72C81.99 84.69 81.08 82.21 79.27 80.31C77.46 78.41 75.13 77.46 72.31 77.46V77.47Z" fill="#311D3F"/>
<path d="M116.5 69.11C119.84 69.11 122.98 69.95 125.92 71.62C128.86 73.29 131.15 75.56 132.8 78.42C134.45 81.28 135.27 84.38 135.27 87.7C135.27 91.02 134.44 94.17 132.78 97.07C131.12 99.98 128.86 102.25 125.99 103.89C123.12 105.53 119.97 106.35 116.52 106.35C111.44 106.35 107.11 104.54 103.52 100.93C99.93 97.32 98.13 92.93 98.13 87.76C98.13 82.23 100.16 77.62 104.22 73.93C107.78 70.72 111.87 69.11 116.49 69.11H116.5ZM116.65 77.47C113.89 77.47 111.59 78.43 109.75 80.35C107.91 82.27 106.99 84.73 106.99 87.72C106.99 90.71 107.9 93.3 109.71 95.21C111.52 97.12 113.82 98.07 116.6 98.07C119.38 98.07 121.7 97.1 123.55 95.17C125.4 93.24 126.32 90.75 126.32 87.72C126.32 84.69 125.41 82.21 123.6 80.31C121.79 78.41 119.47 77.46 116.64 77.46L116.65 77.47Z" fill="#311D3F"/>
<path d="M129.57 30.79C129.57 42.59 122.93 52.84 113.18 58V41.16L112.94 41.42L110.5 43.65C110.5 43.65 110.48 43.67 110.47 43.67C109.04 44.98 107.4 46.02 105.66 46.77V60.8C103.45 61.31 101.14 61.57 98.79 61.57C96.44 61.57 94.14 61.31 91.92 60.8V52.05C91.92 48.27 95.01 45.2 98.79 45.2C102.57 45.2 105.9 43.75 108.47 41.42C109.22 40.76 109.88 39.99 110.47 39.17C112.18 36.82 113.19 33.92 113.19 30.78C113.19 22.85 106.74 16.38 98.79 16.38C90.84 16.38 84.39 22.85 84.39 30.78C84.39 33.92 85.4 36.81 87.11 39.17C88.35 38.05 89.72 37.13 91.19 36.43C91.8 37.3 92.6 38.07 93.49 38.68C91.87 39.33 90.39 40.27 89.11 41.42C88.27 42.19 87.51 43.04 86.88 43.98C85.29 46.28 84.39 49.07 84.39 52.05V57.99C74.64 52.83 68 42.58 68 30.78C68 13.78 81.79 -0.0100098 98.79 -0.0100098C115.79 -0.0100098 129.58 13.78 129.58 30.78L129.57 30.79Z" fill="#E23E57"/>
<path d="M98.81 37.7C102.615 37.7 105.7 34.6152 105.7 30.81C105.7 27.0047 102.615 23.92 98.81 23.92C95.0048 23.92 91.92 27.0047 91.92 30.81C91.92 34.6152 95.0048 37.7 98.81 37.7Z" fill="#FDDE55"/>
</g>
<defs>
<clipPath id="clip0_1_60">
<rect width="197.99" height="106.34" fill="white"/>
</clipPath>
</defs>
</svg>
