<svg xmlns="http://www.w3.org/2000/svg" viewBox="0 0 174.07 78"><defs><style>.cls-1{fill:#fff;}</style></defs><title>Asset 1</title><g id="Layer_2" data-name="Layer 2"><g id="Layer_1-2" data-name="Layer 1"><path class="cls-1" d="M28.59,55.1a5,5,0,0,1-1.52-.21c-.95-.32-1.11-1.55-1.19-2.35l-1.6-13.91c-.06-.42-.19-.61-.35-.61s-.27.16-.37.37l-6.82,14L9.65,38.37A.53.53,0,0,0,9.17,38c-.13,0-.24.16-.27.4L7.2,53.21c-.11.85-.13,1.68-.91,1.81a4.83,4.83,0,0,1-.69.08c-.13,0-.24.08-.24.16s.16.21.4.21c.64,0,1.76-.08,2-.08s1.31.08,2.19.08c.26,0,.42,0,.42-.21a.19.19,0,0,0-.18-.16A4.16,4.16,0,0,1,9.25,55a.64.64,0,0,1-.56-.64c0-.38,0-.8,0-1.15L9.62,43h.11c.4.93,2.29,4.74,3,6.18.59,1.23,2.14,4.13,2.75,5.25.45.83.58,1,.8,1s.34-.21.82-1.2l5.65-11.56h.05L23.9,54.11c.06.43,0,.78-.1.8a.2.2,0,0,0-.16.19c0,.11.1.19.66.24.86.08,3.47.13,4,.13.27,0,.48-.08.48-.21S28.7,55.1,28.59,55.1Z"/><path class="cls-1" d="M38.6,38a9,9,0,0,0-9.3,8.85,8.69,8.69,0,0,0,9.17,8.9,9.08,9.08,0,0,0,9.4-9.25C47.87,41.25,43.87,38,38.6,38Zm.53,16.81c-4.23,0-7.4-3.3-7.4-8.58,0-4.92,2.82-7.38,6.74-7.38,3.7,0,7,2.85,7,8.29C45.47,53.71,41.24,54.83,39.13,54.83Z"/><path class="cls-1" d="M72.72,55.1a5,5,0,0,1-1.52-.21c-1-.32-1.12-1.55-1.2-2.35L68.4,38.63c-.05-.42-.19-.61-.35-.61s-.26.16-.37.37l-6.82,14L53.77,38.37a.53.53,0,0,0-.48-.35c-.13,0-.24.16-.26.4L51.32,53.21c-.1.85-.13,1.68-.9,1.81a5.1,5.1,0,0,1-.7.08c-.13,0-.24.08-.24.16s.16.21.4.21c.64,0,1.76-.08,2-.08s1.31.08,2.19.08c.27,0,.43,0,.43-.21s-.11-.16-.19-.16a4.16,4.16,0,0,1-.91-.13.64.64,0,0,1-.56-.64c0-.38,0-.8,0-1.15L53.75,43h.1c.4.93,2.29,4.74,3,6.18.58,1.23,2.13,4.13,2.74,5.25.45.83.59,1,.8,1s.35-.21.83-1.2l5.64-11.56h.06L68,54.11c0,.43,0,.78-.11.8a.2.2,0,0,0-.16.19c0,.11.11.19.67.24.85.08,3.46.13,4,.13.27,0,.48-.08.48-.21S72.82,55.1,72.72,55.1Z"/><path class="cls-1" d="M85.52,52.41c-.13,0-.19.08-.24.34a1.73,1.73,0,0,1-1.07,1.58,7.77,7.77,0,0,1-2.34.24c-2.32,0-2.75-.3-2.8-1.82,0-.45,0-3.09,0-3.86V47a.14.14,0,0,1,.16-.16c.4,0,2.91,0,3.54.11.91.1,1.12.37,1.2.69a2,2,0,0,1,.11.75c0,.13,0,.21.16.21s.21-.24.21-.43.06-1,.11-1.46a10.54,10.54,0,0,1,.19-1.25c0-.14-.06-.19-.14-.19s-.18.13-.34.29-.59.27-1.15.32-3.62,0-3.92,0c-.13,0-.13-.08-.13-.24V39.54c0-.16,0-.24.13-.24.27,0,3,0,3.39.08,1.28.16,1.52.32,1.68.69a2.68,2.68,0,0,1,.13.8c0,.19,0,.3.19.3s.18-.14.21-.24c0-.27.11-1.28.13-1.5.06-.64.19-.9.19-1.06s0-.21-.11-.21-.21.08-.32.1a8.58,8.58,0,0,1-1.06.13c-.54,0-5.44,0-5.6,0s-1.65,0-2.72,0c-.26,0-.37,0-.37.19a.23.23,0,0,0,.19.19,6.87,6.87,0,0,1,.8.05c.77.1.9.48,1,1.25s0,1.36,0,4.88v4a47.25,47.25,0,0,1-.13,4.9c-.11.67-.16,1.12-.62,1.2a5.68,5.68,0,0,1-.72.11.18.18,0,0,0-.18.19c0,.13.13.18.37.18s.91,0,1.36,0,1,0,1,0c.35,0,1,0,2,.06s2.31.08,4.07.08c.91,0,1.15,0,1.31-.59a19.58,19.58,0,0,0,.32-2.19C85.68,52.59,85.65,52.41,85.52,52.41Z"/><path class="cls-1" d="M106.84,38.34c-1,0-1.74.06-2,.06s-1.39-.06-2.45-.06c-.27,0-.46,0-.46.16a.19.19,0,0,0,.19.22,7.36,7.36,0,0,1,1.15.1c.71.14.85.64.88,2.11l.24,11.35c-.72-.75-3.23-3.44-5.54-5.84-3.63-3.73-7-7.35-7.41-7.72s-.64-.7-.91-.7-.32.24-.32,1.15v13c0,2-.08,2.67-.67,2.83a3.9,3.9,0,0,1-1,.13.18.18,0,0,0-.19.19c0,.16.13.18.37.18,1.07,0,2-.08,2.27-.08s1.14.08,2.48.08c.26,0,.42,0,.42-.18a.18.18,0,0,0-.18-.19A6,6,0,0,1,92.58,55c-.64-.16-.85-.72-.9-2.59L91.41,41.7c.72.8,3.36,3.57,6.08,6.42,2.47,2.58,5.86,5.91,6.1,6.13,1.3,1.2,1.54,1.38,1.78,1.38s.19-.13.19-1.62l0-13.27c0-1.36.06-1.81.83-2a2.78,2.78,0,0,1,.56-.05.26.26,0,0,0,.26-.22C107.26,38.37,107.08,38.34,106.84,38.34Z"/><path class="cls-1" d="M124.05,38.18c-.11,0-.32.06-.67.11a12.31,12.31,0,0,1-1.68.1h-8.84c-.27,0-1.17,0-1.84-.1a7.9,7.9,0,0,1-1-.27c-.08,0-.18.3-.24.43s-.5,2.21-.5,2.45a.18.18,0,0,0,.16.19c.1,0,.18,0,.24-.22a3,3,0,0,1,.37-.72c.35-.53.91-.69,2.37-.72l3.39,0v9.51c0,2.19,0,4-.11,4.9-.08.67-.22,1.12-.7,1.23a3.2,3.2,0,0,1-.69.11.17.17,0,0,0-.19.16c0,.13.11.18.38.18.69,0,2.32-.08,2.42-.08s1.63.08,2.91.08c.26,0,.37-.08.37-.18a.17.17,0,0,0-.19-.19,7.79,7.79,0,0,1-1.06-.11c-.72-.1-.83-.53-.91-1.2-.11-.93-.11-2.71-.11-4.9V39.38l2.94,0c2.23.06,2.74.56,2.82,1.26l0,.24c0,.32.09.4.19.4s.22-.11.22-.3.07-1.89.07-2.58C124.15,38.32,124.15,38.18,124.05,38.18Z"/><path class="cls-1" d="M143.39,38.34c-.69,0-1.81.06-2,.06s-1.49-.06-2.53-.06c-.27,0-.37,0-.37.19a.2.2,0,0,0,.18.19,6.6,6.6,0,0,1,.8.05c.78.1.91.53.94,1.25s.05,1.36.05,4.88v2.85c0,2.31-.24,4.18-1.33,5.49a4.85,4.85,0,0,1-3.63,1.59A4.57,4.57,0,0,1,132,53.61c-1-.91-1.73-2.27-1.73-5.54V44.9c0-3.52,0-4.16.06-4.88s.18-1.15.8-1.25a2.84,2.84,0,0,1,.58-.05.22.22,0,0,0,.21-.19c0-.14-.13-.19-.4-.19-.69,0-2.15.06-2.36.06s-1.63-.06-2.7-.06c-.26,0-.37,0-.37.19a.23.23,0,0,0,.19.19,6.87,6.87,0,0,1,.8.05c.77.1.9.53.95,1.25s.06,1.36.06,4.88v3.33c0,3.3.9,4.87,2.05,5.94a7.34,7.34,0,0,0,4.87,1.6A7.1,7.1,0,0,0,140,54.11c1.86-1.6,2.18-4.34,2.18-6.79V44.9c0-3.52,0-4.16,0-4.88s.18-1.12.82-1.25a3,3,0,0,1,.59-.05.2.2,0,0,0,.19-.19C143.77,38.39,143.66,38.34,143.39,38.34Z"/><path class="cls-1" d="M168,55.1a5,5,0,0,1-1.52-.21c-1-.32-1.12-1.55-1.2-2.35l-1.6-13.91c-.05-.42-.19-.61-.35-.61s-.26.16-.37.37l-6.82,14-7.09-14.07a.53.53,0,0,0-.48-.35c-.13,0-.24.16-.26.4l-1.71,14.79c-.1.85-.13,1.68-.9,1.81a5.1,5.1,0,0,1-.7.08c-.13,0-.23.08-.23.16s.16.21.4.21c.63,0,1.75-.08,2-.08s1.3.08,2.18.08c.27,0,.43,0,.43-.21s-.11-.16-.19-.16a4.16,4.16,0,0,1-.91-.13.64.64,0,0,1-.56-.64c0-.38,0-.8,0-1.15L149,43h.1c.4.93,2.29,4.74,3,6.18.58,1.23,2.13,4.13,2.74,5.25.45.83.59,1,.8,1s.35-.21.83-1.2l5.64-11.56h.06l1.12,11.45c.05.43,0,.78-.11.8a.21.21,0,0,0-.16.19c0,.11.11.19.67.24.85.08,3.46.13,4,.13.27,0,.48-.08.48-.21S168.11,55.1,168,55.1Z"/><path class="cls-1" d="M6.44,64.62c0-1.89,0-2.23,0-2.62s-.1-.62-.52-.67a2.86,2.86,0,0,0-.43,0,.12.12,0,0,1-.1-.09c0-.08.06-.11.2-.11.58,0,1.42,0,1.49,0l1.58,0a4.19,4.19,0,0,1,2.35.53,2.14,2.14,0,0,1,.88,1.67,3.55,3.55,0,0,1-1.55,2.78c1,1.29,1.91,2.4,2.64,3.16a2.34,2.34,0,0,0,1.41.85,2.44,2.44,0,0,0,.44,0,.1.1,0,0,1,.11.1c0,.07-.07.1-.3.1h-.79a2.54,2.54,0,0,1-1.34-.24,6.48,6.48,0,0,1-1.73-1.8c-.53-.66-1.09-1.45-1.36-1.78a.19.19,0,0,0-.17-.07l-1.61,0c-.05,0-.08,0-.08.1v.29c0,1.18,0,2.12,0,2.62s.12.59.51.65a4.3,4.3,0,0,0,.56.06.09.09,0,0,1,.1.1c0,.06-.06.1-.2.1-.69,0-1.5,0-1.55,0s-.86,0-1.25,0c-.13,0-.2,0-.2-.1a.09.09,0,0,1,.1-.1A1.85,1.85,0,0,0,6,70.06c.24-.06.27-.29.33-.65a25.34,25.34,0,0,0,.07-2.63Zm1.09,1a.18.18,0,0,0,.08.15A4.27,4.27,0,0,0,9,66a1.63,1.63,0,0,0,.95-.21,2.2,2.2,0,0,0,.76-1.87,2.11,2.11,0,0,0-2.18-2.4,5.13,5.13,0,0,0-.9.08.14.14,0,0,0-.1.14Z"/><path class="cls-1" d="M20.81,64.62c0-1.89,0-2.23,0-2.62s-.1-.62-.52-.67a3,3,0,0,0-.43,0,.12.12,0,0,1-.1-.09c0-.08.06-.11.2-.11.57,0,1.39,0,1.46,0s2.73,0,3,0a4,4,0,0,0,.57-.07c.06,0,.11-.06.17-.06s.06.06.06.12-.07.23-.1.57c0,.12,0,.66-.07.81s-.06.12-.12.12-.1,0-.1-.15a1.23,1.23,0,0,0-.07-.43c-.09-.2-.21-.29-.9-.38-.22,0-1.68,0-1.83,0s-.07,0-.07.13v3.31c0,.09,0,.13.07.13s1.83,0,2.11,0,.49,0,.62-.18.14-.15.19-.15.07,0,.07.09-.07.28-.1.68c0,.24-.06.7-.06.79s0,.23-.11.23-.09,0-.09-.12a1,1,0,0,0-.06-.4c0-.17-.15-.31-.64-.37s-1.7-.06-1.91-.06a.08.08,0,0,0-.09.09v1c0,.41,0,1.83,0,2.07,0,.82.26,1,1.51,1a4.16,4.16,0,0,0,1.26-.13.94.94,0,0,0,.58-.85c0-.14.05-.18.12-.18s.09.1.09.18A10.39,10.39,0,0,1,25.34,70c-.09.32-.22.32-.7.32-.95,0-1.68,0-2.2,0l-1.05,0h-.54l-.73,0c-.13,0-.2,0-.2-.1a.09.09,0,0,1,.1-.1,2.5,2.5,0,0,0,.38-.06c.25,0,.28-.29.33-.65a22.19,22.19,0,0,0,.08-2.63Z"/><path class="cls-1" d="M35.85,61.34c.15-.4.21-.47.3-.47s.17.17.3.44c.23.52,2.25,5.55,3,7.4.46,1.09.81,1.25,1.08,1.34a2.05,2.05,0,0,0,.5.07c.07,0,.16,0,.16.1s-.14.1-.29.1-1.12,0-2,0c-.24,0-.45,0-.45-.09s0,0,.09-.08a.24.24,0,0,0,.12-.33L37.55,67c0-.06,0-.07-.11-.07H34.53a.13.13,0,0,0-.13.1l-.72,2a2.39,2.39,0,0,0-.19.82c0,.24.22.33.43.33H34c.1,0,.13,0,.13.1s-.07.1-.19.1c-.3,0-1,0-1.13,0s-.76,0-1.28,0c-.16,0-.24,0-.24-.1a.1.1,0,0,1,.11-.1l.37,0c.58-.07.82-.5,1.07-1.12Zm1.4,5.08c.06,0,.06,0,0-.09L36.05,63c-.08-.19-.15-.19-.22,0l-1.18,3.34c0,.06,0,.09.05.09Z"/><path class="cls-1" d="M49.25,66.8c0,1.8,0,2.53.26,2.74s.69.29,1.68.29c.66,0,1.22,0,1.52-.37a1.71,1.71,0,0,0,.3-.69c0-.09.05-.16.13-.16s.08.06.08.19A7.6,7.6,0,0,1,53,70c-.09.28-.13.33-.81.33-.9,0-1.6,0-2.19,0l-1.38,0h-.52l-.73,0c-.13,0-.2,0-.2-.1a.09.09,0,0,1,.1-.1,1.76,1.76,0,0,0,.39-.06c.24-.06.27-.29.33-.65a25.34,25.34,0,0,0,.07-2.63V64.62c0-1.89,0-2.23,0-2.62s-.1-.62-.51-.67a3,3,0,0,0-.43,0,.11.11,0,0,1-.1-.09c0-.08,0-.11.2-.11.57,0,1.36,0,1.43,0l1.39,0c.13,0,.2,0,.2.11a.1.1,0,0,1-.1.08l-.41,0c-.38.07-.45.26-.48.69s0,.73,0,2.62Z"/><path class="cls-1" d="M63.7,66.78c0,1.17,0,2.13.06,2.63s.1.59.49.65a4.43,4.43,0,0,0,.57.06c.09,0,.1,0,.1.1s-.06.1-.2.1c-.69,0-1.49,0-1.56,0s-.94,0-1.31,0c-.14,0-.2,0-.2-.1a.09.09,0,0,1,.1-.09,2.35,2.35,0,0,0,.37,0c.26-.06.33-.31.37-.67s.06-1.46.06-2.63V61.65l-1.82,0c-.79,0-1.09.1-1.28.39a2.37,2.37,0,0,0-.2.39c0,.1-.07.11-.13.11a.1.1,0,0,1-.08-.1c0-.13.26-1.22.27-1.32s.09-.23.13-.23a5.22,5.22,0,0,0,.56.15c.36,0,.85,0,1,0h4.76a8.54,8.54,0,0,0,.91,0L67,61c.06,0,.06.07.06.14,0,.37,0,1.25,0,1.39s-.06.16-.12.16-.08,0-.1-.21v-.13c0-.38-.32-.65-1.52-.68l-1.58,0Z"/><path class="cls-1" d="M76.89,67.15a2.23,2.23,0,0,0-.27-1.25c-.1-.19-1.81-2.9-2.24-3.54a3,3,0,0,0-.83-.89,1.22,1.22,0,0,0-.53-.18.12.12,0,0,1-.13-.11c0-.06,0-.09.15-.09l1.25,0c.09,0,.6,0,1.09,0,.15,0,.18,0,.18.09s-.09.09-.21.13a.2.2,0,0,0-.15.2.93.93,0,0,0,.17.47l2.29,3.81c.26-.52,1.84-3.13,2.07-3.53a1.3,1.3,0,0,0,.21-.64c0-.17,0-.27-.2-.31s-.18-.09-.18-.14.07-.08.2-.08c.33,0,.77,0,.87,0l1.24,0c.08,0,.15,0,.15.08a.14.14,0,0,1-.15.12,1.34,1.34,0,0,0-.59.16,2.35,2.35,0,0,0-.63.61,44.82,44.82,0,0,0-2.46,3.87A2.5,2.5,0,0,0,78,67.15v1c0,.2,0,.71,0,1.21s.11.59.49.65a4.62,4.62,0,0,0,.57.06.09.09,0,0,1,.1.1c0,.06-.07.1-.2.1-.7,0-1.52,0-1.59,0s-.86,0-1.23,0c-.15,0-.21,0-.21-.1a.09.09,0,0,1,.1-.1,1.67,1.67,0,0,0,.38-.06c.26-.06.34-.29.37-.65s0-1,0-1.21Z"/><path class="cls-1" d="M107.87,67.21c0-1,0-1.14-.55-1.24l-.43,0a.12.12,0,0,1-.1-.1c0-.08.06-.1.2-.1.58,0,1.42,0,1.49,0l1.24,0c.14,0,.2,0,.2.1a.12.12,0,0,1-.1.1,1.39,1.39,0,0,0-.32,0c-.34.06-.44.25-.47.68s0,.74,0,1.26v1.36c0,.56,0,.57-.18.66a6.34,6.34,0,0,1-2.68.55A6.42,6.42,0,0,1,102,69.17a4.67,4.67,0,0,1-1.51-3.47,4.55,4.55,0,0,1,2.11-4,6.37,6.37,0,0,1,3.36-.78,11.45,11.45,0,0,1,1.94.2,5.15,5.15,0,0,0,1,.13c.13,0,.16.06.16.12s-.07.5-.07,1.72c0,.2-.06.26-.14.26s-.09-.08-.09-.19a1.63,1.63,0,0,0-.29-.8c-.31-.46-1.27-1-2.91-1a4,4,0,0,0-2.64.79,3.8,3.8,0,0,0-1.25,3.07A4.86,4.86,0,0,0,103,68.64a4.51,4.51,0,0,0,3.23,1.28,3.27,3.27,0,0,0,1.36-.23c.16-.09.26-.15.26-.38Z"/><path class="cls-1" d="M116.68,64.62c0-1.89,0-2.23,0-2.62s-.1-.62-.52-.67a2.86,2.86,0,0,0-.43,0,.12.12,0,0,1-.1-.09c0-.08.06-.11.2-.11.57,0,1.42,0,1.49,0l1.58,0a4.21,4.21,0,0,1,2.35.53,2.14,2.14,0,0,1,.88,1.67,3.55,3.55,0,0,1-1.55,2.78c1,1.29,1.91,2.4,2.64,3.16a2.35,2.35,0,0,0,1.4.85,2.59,2.59,0,0,0,.45,0,.11.11,0,0,1,.12.1c0,.07-.08.1-.31.1h-.79a2.54,2.54,0,0,1-1.34-.24,6.48,6.48,0,0,1-1.73-1.8c-.53-.66-1.09-1.45-1.36-1.78a.22.22,0,0,0-.17-.07l-1.61,0c-.06,0-.08,0-.08.1v.29c0,1.18,0,2.12.06,2.62s.11.59.5.65a4.35,4.35,0,0,0,.55.06c.09,0,.1,0,.1.1s0,.1-.2.1c-.68,0-1.49,0-1.54,0s-.87,0-1.25,0c-.13,0-.2,0-.2-.1a.09.09,0,0,1,.1-.1,1.67,1.67,0,0,0,.38-.06c.25-.06.28-.29.34-.65a25.34,25.34,0,0,0,.07-2.63Zm1.09,1a.16.16,0,0,0,.08.15,4.34,4.34,0,0,0,1.4.19,1.64,1.64,0,0,0,.94-.21,2.2,2.2,0,0,0,.76-1.87,2.11,2.11,0,0,0-2.18-2.4,5.13,5.13,0,0,0-.9.08.14.14,0,0,0-.1.14Z"/><path class="cls-1" d="M135.84,60.92c2.84,0,5,1.74,5,4.58a4.89,4.89,0,0,1-5.07,5,4.67,4.67,0,0,1-4.93-4.8A4.83,4.83,0,0,1,135.84,60.92Zm.29,9c1.13,0,3.41-.6,3.41-4.13,0-2.92-1.78-4.46-3.77-4.46s-3.63,1.32-3.63,4C132.14,68.2,133.85,70,136.13,70Z"/><path class="cls-1" d="M147.59,64.62c0-1.89,0-2.23,0-2.62s-.1-.62-.51-.67a3,3,0,0,0-.43,0,.12.12,0,0,1-.1-.09c0-.08.06-.11.2-.11.57,0,1.33,0,1.45,0l1.27,0c.15,0,.22,0,.22.11s-.06.09-.12.09a1.07,1.07,0,0,0-.31,0c-.33.05-.4.27-.43.67s0,.73,0,2.62v1.71c0,1.77.39,2.5.93,3a2.46,2.46,0,0,0,1.88.66,2.58,2.58,0,0,0,1.95-.86,4.46,4.46,0,0,0,.72-3V64.62c0-1.89,0-2.23,0-2.62s-.09-.62-.5-.67a3,3,0,0,0-.43,0,.1.1,0,0,1-.1-.09c0-.08.05-.11.2-.11.56,0,1.29,0,1.36,0s.69,0,1.06,0c.15,0,.2,0,.2.11a.1.1,0,0,1-.1.09,1.07,1.07,0,0,0-.31,0c-.35.07-.42.27-.45.67s0,.73,0,2.62v1.31c0,1.32-.17,2.8-1.18,3.66a3.81,3.81,0,0,1-2.64.89,3.47,3.47,0,0,1-3.73-4.06Z"/><path class="cls-1" d="M162.77,64.62c0-1.89,0-2.23,0-2.62s-.1-.62-.51-.67a3,3,0,0,0-.44,0,.12.12,0,0,1-.1-.09c0-.08.06-.11.2-.11.58,0,1.37,0,1.47,0l1.79,0a3.3,3.3,0,0,1,2.41.69,2.06,2.06,0,0,1,.63,1.47c0,1.75-1.32,2.91-3.25,2.91a2.17,2.17,0,0,1-.36,0,.13.13,0,0,1-.13-.11c0-.1.07-.13.33-.13a2.12,2.12,0,0,0,2.34-2,2.5,2.5,0,0,0-.72-1.85,2.17,2.17,0,0,0-1.71-.58,4.23,4.23,0,0,0-.7.08c-.07,0-.1.1-.1.23v5c0,1.17,0,2.13.06,2.63s.11.59.5.65a4.3,4.3,0,0,0,.56.06.09.09,0,0,1,.1.1c0,.06-.06.1-.2.1-.69,0-1.52,0-1.58,0s-.86,0-1.25,0c-.13,0-.2,0-.2-.1a.09.09,0,0,1,.1-.1,1.76,1.76,0,0,0,.39-.06c.25-.06.27-.29.33-.65a25.34,25.34,0,0,0,.07-2.63Z"/><polyline class="cls-1" points="85.66 6.53 118.8 2.61 108.13 18.3 95.28 18.3 103.99 25.48 84.82 25.48 52.52 0 85.66 6.53"/><polygon class="cls-1" points="37.12 5.44 31.24 3.7 31.24 12.85 37.12 8.65 37.12 5.44"/><polygon class="cls-1" points="16.21 25.48 20.93 25.48 52.72 3.35 50.63 1.52 16.21 25.48"/><polygon class="cls-1" points="155.07 25.48 157.25 25.48 147.98 10.89 146.9 12.85 155.07 25.48"/><polygon class="cls-1" points="146.9 9.58 125.22 12.41 128.82 17.86 127.08 17.86 118.8 5.44 117.78 6.98 126.03 19.31 126.03 20.69 139.49 20.69 146.9 9.58"/><rect class="cls-1" y="30.5" width="174.07" height="0.84"/><rect class="cls-1" y="77.16" width="174.07" height="0.84"/><path class="cls-1" d="M146.44,19.24h1.72V21h-1.72ZM145.88,21V19.24h-1.72V21Zm0,.56h-1.72v1.72h1.72Zm.56,0v1.72h1.72V21.52Z"/><path class="cls-1" d="M116.57,16.34h2.16V18.5h-2.16Zm-.69,2.16V16.34h-2.15V18.5Zm0,.69h-2.15v2.15h2.15Zm.69,0v2.15h2.16V19.19Z"/><path class="cls-1" d="M47.6,17.85v-5h5v5Zm6,0h5v-5h-5Zm-1,1h-5v5h5Zm1,0v5h5v-5Z"/></g></g></svg>